<svg xmlns="http://www.w3.org/2000/svg" viewBox="0 0 315 215" class="svg-logo" width="315" height="215" style="height: auto;"><rect rx="10" ry="10" width="100%" height="100%" fill="rgba(0, 128, 255, 1.0)"></rect><g data-element="wrapper" transform="translate(62.99999999999851 41.49999084472553) scale(0.6000000000000094)"><g><g data-element="icon" transform="scale(0.15) translate(750 840.0026103516576)"><path id="color_x5F_4" fill="#8E3E96" d="M146.942,349.258c-2.356,6.374-14.942,72.581-22.03,95.942    c-7.363,24.268-46.98,59.76-46.98,59.76c-5.605-6.587-10.921-13.457-16.124-20.367c0,0,33.054-33.172,32.982-33.063    c4.943-7.468,21.672-106.879,33.705-120.726c8.183-9.417,17.546-18.063,26.618-26.784c5.016,6.797,9.896,13.689,14.534,20.752    C169.755,325.106,147.052,348.961,146.942,349.258z M380.939,543.264c-0.057-0.05-0.103-0.102-0.159-0.153    c-25.938,8.626-53.03,12.993-80.78,12.993c-25.904,0-51.778-5.937-71.006-11.798c-12.834-3.912-15.193-21.096-3.898-28.337    c14.3-9.166,28.479-18.546,42.751-27.712c-6.28-6.16-12.471-12.423-18.644-18.716c-21.974,14.004-44.328,27.563-65.936,42.119    c-9.016,6.073-37.772,36.428-44.694,43.35c6.1,3.014,12.252,5.906,18.428,8.742l-0.013,0.024    c43.621,23.695,93.074,36.221,143.013,36.221c39.471,0,77.83-7.56,114.031-22.449C403.387,565.745,392.956,553.73,380.939,543.264z"></path> <path id="color_x5F_3" fill="#35A1DA" d="M469.916,552.487c-8.037,4.241-16.271,8.148-24.571,11.948    c0,0-22.575-22.458-22.467-22.386c-7.468-4.944-106.879-21.672-120.726-33.706c-11.873-10.318-57.974-56.65-69.029-69.029    c-9.243-10.35-10.652-25.963-0.8-36.595c2.353-2.54,5.445-4.779,8.759-6.89c5.914,6.585,11.565,13.378,17.761,19.612    c-3.792,2.534-7.192,5.032-7.136,5.966c0.206,3.42,66.395,66.497,68.136,68.137c0.074,0.07,0.098,0.104,0.139,0.15    c0.139,0.035,0.327,0.093,0.624,0.203c6.374,2.356,72.581,14.942,95.942,22.03C439.848,518.996,453.43,535.724,469.916,552.487z     M537.849,209.258c12.108,30.17,18.258,62.089,18.258,95.129c0,43.075-10.522,84.494-30.66,121.629    c-5.625,10.372-20.363,10.877-26.902,1.056c-17.468-26.235-45.548-68.421-46.796-70.36c-6.04,6.461-12.17,12.812-18.651,18.806    c2.316,3.578,35.055,55.997,49.913,78.055c6.073,9.016,36.637,37.981,43.664,45.007c3.834-5.433,13.693-14.653,13.693-14.653    C579.378,431.774,600,369.691,600,304.387c0-44.593-9.565-87.468-28.392-127.491C560.154,187.486,548.641,198.015,537.849,209.258z"></path> <path id="color_x5F_2" fill="#61C6C3" d="M560.128,145.594c0,0-48.569,48.686-48.497,48.578    c-4.943,7.468-21.672,106.879-33.705,120.726c-10.318,11.873-56.651,57.974-69.029,69.029c-7.188,6.42-16.914,9.049-25.749,6.762    c21.894-14.181,22.218-39.723,22.985-40.49c11.705-11.705,33.835-33.78,45.469-45.425c4.898-4.903,8.259-11.097,9.702-17.876    c4.479-21.041,14.763-68.457,20.206-86.398c7.363-24.268,62.01-74.789,62.01-74.789c5.976,6.122,11.335,12.747,16.45,19.575    C560.021,145.39,560.075,145.491,560.128,145.594z M300-0.002c-52.887,0-104.892,13.958-150.389,40.364    c0,0,22.599,21.241,32.857,32.07C218.614,53.745,258.981,43.891,300,43.891c41.805,0,82.929,10.368,119.556,29.685    c9.398,4.956,11.303,17.611,3.79,25.123c-6.075,6.075-11.829,11.829-12.172,12.174c-0.615,0.503-49.172,31.52-72.372,46.424    c6.585,5.979,13.085,12.053,19.593,18.118c21.596-13.739,43.535-27.078,64.759-41.375c9.016-6.073,65.447-67.357,65.447-67.357    C435.463,23.68,368.485-0.002,300-0.002z"></path> <path id="color_x5F_1_1_" fill="#E14799" d="M391.499,335.765c13.168,19.98-3.065,43.898-23.289,48.101    c-4.113,21.041-30.978,37.563-51.251,20.423c-4.925,6.256-12.138,11.269-20.37,13.947c-22.253,7.24-41.396-22.095-55.024-35.723    l-64.959-64.959c-11.293-11.293-59.514-85.911-74.493-110.862c-0.259-0.432-5.793-6.126-11.835-12.293    c-7.841-8.003-21.347-5.539-25.768,4.756c-13.571,31.604-20.618,65.743-20.618,100.843c0,47.32,12.882,93.083,37.306,133.122    c-10.438,10.648-21.784,20.557-32.041,31.406C17.012,415.614,0,358.827,0,299.998c0-62.255,18.898-121.966,54.651-172.679    c0,0,62.687,55.793,68.759,64.809c14.858,22.058,64.509,100.181,64.307,100.045c0.693,0.691,73.744,74.409,95.86,96.727    c3.496,3.528,9.229,3.432,12.599-0.218c1.055-1.143,1.807-2.017,1.782-2.16c-23.841-23.097-78.069-79.136-82.124-83.191    c-11.762-11.762,6.489-30.003,18.246-18.246c20.009,20.009,99.508,100.232,100.518,100.518c4.099,1.159,9.315-4.245,8.214-8.261    c-0.023-0.085-0.068-0.176-0.1-0.263c-0.334-0.287-0.675-0.537-1.005-0.842c-31.784-29.421-61.462-61.462-92.091-92.091    c-11.762-11.762,6.489-30.003,18.246-18.246c16.444,16.444,77.53,76.24,90.671,90.479c3.875,3.078,9.002,4.663,11.369-2.762    c1.575-4.941-64.553-68.475-92.918-96.84c-11.762-11.762,6.489-30.003,18.246-18.246c15.071,15.071,58.113,57.599,74.272,73.624    c3.158,3.131,16.886,5.463,10.796-5.587c-1.273-2.309-113.045-113.045-113.045-113.045c-11.762-11.762,6.489-30.003,18.246-18.246    c19.261,19.261,38.523,38.523,57.784,57.784c1.475-0.946,3.068-2.091,4.582-3.237c3.727-2.82,4.113-8.272,0.81-11.579    c-16.408-16.43-60.68-60.754-62.097-62.089c-0.074-0.069-0.098-0.104-0.139-0.15c-0.139-0.035-0.327-0.093-0.624-0.203    c-6.374-2.356-72.581-14.942-95.942-22.03c-24.268-7.363-76.333-63.554-76.333-63.554c5.853-6.298,11.881-12.449,18.103-18.389    c0,0,52.01,51.892,51.902,51.82c7.468,4.944,106.879,21.672,120.726,33.706c11.873,10.318,22.52,22.52,33.637,33.637    c11.732,11.732,24.336,23.014,35.392,35.392c9.243,10.35,10.652,25.963,0.8,36.595c-3.109,3.355-7.504,6.188-12.005,8.892    l0.422,0.422c11.619,11.619,23.763,22.904,34.946,34.946c6.817,7.34,10.992,16.039,9.019,26.331    C404.691,322.911,398.077,329.423,391.499,335.765z"></path></g><text transform="translate(11.8359375 65.00009155273438)" fill="rgba(200, 232, 242, 1.0)" font-family="Srisakdi" font-size="64" data-element="company-name" dx="0 0 0 0 0 0 0 0 0 0">Blue Lotus</text><text transform="translate(43.453125 105.00009155273438)" fill="rgba(200, 232, 242, 1.0)" font-family="Pattaya" font-size="28.8" data-element="slogan" dx="0 0 0 0 0 0 0 0 0 0 0 0 0 0 0 0 0 0">Do Something Right</text></g></g></svg>